<svg id="Layer_1" data-name="Layer 1" xmlns="http://www.w3.org/2000/svg" viewBox="0 0 193.04 211.64">
  <defs>
    <style>.cls-1,.cls-2{fill:#cb3694;}.cls-2{stroke:#cb3694;stroke-miterlimit:10;stroke-width:12px;}</style>
  </defs>
  <polygon class="cls-1" points="96.03 203.02 15.74 162.33 10.24 41.21 22.95 40.63 28.11 154.34 95.81 188.64 163.73 151.51 168.89 40.63 181.6 41.22 176.11 159.24 96.03 203.02" />
  <path class="cls-1" d="M109.7,206.4,28.31,165.16l0-.64L22.74,42.3l14.9-.68.06,1.1,5.12,113.06,66.61,33.75L176.3,153l5.18-111.37,14.92.7-.05,1.1-5.52,118.64ZM30.45,163.78l79.21,40.13,79-43.2L194.09,44.4l-10.5-.48-5.14,110.4-69,37.71L40.68,157.17l0-.64L35.54,43.92,25,44.4Z" transform="translate(-13.64 -2.14)" />
  <polygon class="cls-2" points="179.77 41.59 95.92 9.12 12.07 41.59 11.6 40.26 95.92 7.61 180.25 40.26 179.77 41.59" />
  <polygon class="cls-2" points="180.4 43 95.92 10.29 11.45 43 10.24 39.61 95.92 6.43 181.6 39.61 180.4 43" />
  <circle class="cls-1" cx="15.95" cy="41.62" r="14.84" />
  <path class="cls-1" d="M29.59,59.7a15.95,15.95,0,1,1,15.94-16A16,16,0,0,1,29.59,59.7Zm0-29.69A13.74,13.74,0,1,0,43.33,43.75,13.76,13.76,0,0,0,29.59,30Z" transform="translate(-13.64 -2.14)" />
  <circle class="cls-1" cx="177.1" cy="41.62" r="14.84" />
  <path class="cls-1" d="M190.74,59.7a15.95,15.95,0,1,1,15.95-16A16,16,0,0,1,190.74,59.7Zm0-29.69a13.74,13.74,0,1,0,13.74,13.74A13.76,13.76,0,0,0,190.74,30Z" transform="translate(-13.64 -2.14)" />
  <circle class="cls-1" cx="23.01" cy="157.53" r="14.84" />
  <path class="cls-1" d="M36.66,175.61A15.95,15.95,0,1,1,52.6,159.67,16,16,0,0,1,36.66,175.61Zm0-29.68A13.74,13.74,0,1,0,50.4,159.67,13.75,13.75,0,0,0,36.66,145.93Z" transform="translate(-13.64 -2.14)" />
  <circle class="cls-1" cx="168.61" cy="157.53" r="14.84" />
  <path class="cls-1" d="M182.26,175.61a15.95,15.95,0,1,1,15.94-15.94A16,16,0,0,1,182.26,175.61Zm0-29.68A13.74,13.74,0,1,0,196,159.67,13.75,13.75,0,0,0,182.26,145.93Z" transform="translate(-13.64 -2.14)" />
  <circle class="cls-1" cx="96.52" cy="195.7" r="14.84" />
  <path class="cls-1" d="M110.16,213.78a15.95,15.95,0,1,1,16-15.95A16,16,0,0,1,110.16,213.78Zm0-29.69a13.75,13.75,0,1,0,13.74,13.74A13.76,13.76,0,0,0,110.16,184.09Z" transform="translate(-13.64 -2.14)" />
  <rect class="cls-2" x="95.81" y="18.5" width="1.41" height="177.96" />
  <rect class="cls-2" x="94.71" y="17.46" width="3.62" height="180.05" />
  <polygon class="cls-2" points="23.54 159.88 22.27 159.29 95.29 18.18 96.56 18.76 23.54 159.88" />
  <polygon class="cls-2" points="24.05 161.27 20.8 159.77 94.78 16.78 98.03 18.28 24.05 161.27" />
  <polygon class="cls-2" points="169.3 159.88 96.29 18.76 97.56 18.18 170.57 159.29 169.3 159.88" />
  <polygon class="cls-2" points="168.8 161.27 94.81 18.28 97.06 16.78 172.04 159.77 168.8 161.27" />
</svg>