<svg id="Layer_1" data-name="Layer 1" xmlns="http://www.w3.org/2000/svg" viewBox="0 0 310 310">
  <defs>
    <style>.cls-1{fill:#f499c1;}.cls-2{fill:#cb3694;}.cls-3{fill:#eecde2;}</style>
  </defs>
  <polygon class="cls-1" points="154.29 60.19 154.29 247.66 228.29 207.21 242.11 92.75 154.29 60.19" />
  <path class="cls-2" d="M153.19,249.52V58.61L243.31,92l-.11.86-13.88,115ZM155.4,61.78v184l71.86-39.29,13.65-113Z" />
  <polygon class="cls-3" points="154.29 60.19 66.48 92.75 80.29 210.16 154.29 247.66 154.29 60.19" />
  <path class="cls-2" d="M155.4,249.45,79.27,210.88,65.28,92,155.4,58.61Zm-74.08-40,71.87,36.41V61.78L67.68,93.48Z" />
  <polygon class="cls-2" points="154.51 254.85 74.22 214.16 68.72 93.04 81.43 92.46 86.59 206.17 154.29 240.47 222.21 203.34 227.37 92.46 240.08 93.05 234.59 211.07 154.51 254.85" />
  <path class="cls-2" d="M154.54,256.09l-81.4-41.23,0-.65L67.57,92l14.91-.68,0,1.1,5.13,113.07,66.61,33.74,66.87-36.55L226.32,91.3l14.91.7,0,1.1-5.52,118.64ZM75.28,213.47l79.21,40.13,79-43.2,5.41-116.3-10.51-.49L223.29,204l-69,37.71L85.52,206.86l0-.64L80.38,93.61l-10.51.48Z" />
  <polygon class="cls-2" points="241.97 93.41 154.4 60.95 66.83 93.41 66.34 92.09 154.4 59.44 242.46 92.09 241.97 93.41" />
  <polygon class="cls-2" points="242.62 94.83 154.4 62.12 66.19 94.83 64.92 91.44 154.4 58.26 243.88 91.44 242.62 94.83" />
  <circle class="cls-2" cx="74.42" cy="93.44" r="14.84" />
  <path class="cls-2" d="M74.42,109.39a15.95,15.95,0,1,1,16-16A16,16,0,0,1,74.42,109.39Zm0-29.69A13.74,13.74,0,1,0,88.17,93.44,13.76,13.76,0,0,0,74.42,79.7Z" />
  <circle class="cls-2" cx="235.57" cy="93.44" r="14.84" />
  <path class="cls-2" d="M235.57,109.39a15.95,15.95,0,1,1,16-16A16,16,0,0,1,235.57,109.39Zm0-29.69a13.74,13.74,0,1,0,13.75,13.74A13.76,13.76,0,0,0,235.57,79.7Z" />
  <circle class="cls-2" cx="81.49" cy="209.36" r="14.84" />
  <path class="cls-2" d="M81.49,225.3a15.95,15.95,0,1,1,16-15.94A16,16,0,0,1,81.49,225.3Zm0-29.68a13.74,13.74,0,1,0,13.74,13.74A13.76,13.76,0,0,0,81.49,195.62Z" />
  <circle class="cls-2" cx="227.09" cy="209.36" r="14.84" />
  <path class="cls-2" d="M227.09,225.3A15.95,15.95,0,1,1,243,209.36,16,16,0,0,1,227.09,225.3Zm0-29.68a13.74,13.74,0,1,0,13.75,13.74A13.75,13.75,0,0,0,227.09,195.62Z" />
  <circle class="cls-2" cx="155" cy="247.53" r="14.84" />
  <path class="cls-2" d="M155,263.47a15.95,15.95,0,1,1,15.94-15.94A16,16,0,0,1,155,263.47Zm0-29.68a13.74,13.74,0,1,0,13.74,13.74A13.75,13.75,0,0,0,155,233.79Z" />
  <rect class="cls-2" x="154.29" y="60.22" width="1.41" height="188.01" />
  <rect class="cls-2" x="153.19" y="59.12" width="3.62" height="190.21" />
  <rect class="cls-2" x="34.89" y="134.02" width="166" height="1.41" transform="translate(-54.94 181.44) rotate(-63.94)" />
  <rect class="cls-2" x="33.79" y="132.92" width="168.2" height="3.62" transform="translate(-54.93 181.46) rotate(-63.94)" />
  <rect class="cls-2" x="190.2" y="51.73" width="1.41" height="166" transform="translate(-39.8 97.7) rotate(-26.09)" />
  <rect class="cls-2" x="189.1" y="50.63" width="3.62" height="168.2" transform="translate(-39.8 97.7) rotate(-26.09)" />
</svg>