<svg id="Layer_1" data-name="Layer 1" xmlns="http://www.w3.org/2000/svg" viewBox="0 0 1101.83 375.65"><defs><style>.cls-1{fill:#f499c1;}.cls-2{fill:#cb3694;}.cls-3{fill:#eecde2;}</style></defs><polygon class="cls-1" points="152.28 56.2 152.28 243.67 226.28 203.22 240.1 88.77 152.28 56.2"/><path class="cls-2" d="M151.18,245.53V54.62L241.3,88l-.11.87-13.88,115Zm2.21-187.74v184l71.87-39.29,13.64-113Z"/><polygon class="cls-3" points="152.28 56.2 64.47 88.77 78.28 206.18 152.28 243.67 152.28 56.2"/><path class="cls-2" d="M153.39,245.47,77.26,206.89,63.27,88l90.12-33.41Zm-74.08-40,71.87,36.42V57.79L65.67,89.5Z"/><polygon class="cls-2" points="152.51 250.86 72.21 210.18 66.71 89.05 79.42 88.48 84.58 202.18 152.28 236.48 220.2 199.35 225.36 88.47 238.07 89.06 232.58 207.08 152.51 250.86"/><path class="cls-2" d="M152.53,252.11,71.14,210.87l0-.64L65.56,88l14.91-.67,0,1.1,5.13,113.06,66.61,33.75,66.87-36.56,5.18-111.36,14.91.69-.05,1.1-5.52,118.64ZM73.28,209.48l79.21,40.13,79-43.2,5.41-116.3-10.51-.49L221.28,200l-69,37.71L83.51,202.87l0-.64L78.37,89.63l-10.5.47Z"/><polygon class="cls-2" points="239.96 89.43 152.39 56.96 64.83 89.43 64.33 88.1 152.39 55.45 240.45 88.1 239.96 89.43"/><polygon class="cls-2" points="240.61 90.84 152.39 58.13 64.18 90.84 62.91 87.45 152.39 54.28 241.87 87.45 240.61 90.84"/><circle class="cls-2" cx="72.42" cy="89.46" r="14.84"/><path class="cls-2" d="M72.42,105.4A15.95,15.95,0,1,1,88.36,89.46,16,16,0,0,1,72.42,105.4Zm0-29.68A13.74,13.74,0,1,0,86.16,89.46,13.75,13.75,0,0,0,72.42,75.72Z"/><circle class="cls-2" cx="233.57" cy="89.46" r="14.84"/><path class="cls-2" d="M233.57,105.4a15.95,15.95,0,1,1,15.94-15.94A16,16,0,0,1,233.57,105.4Zm0-29.68a13.74,13.74,0,1,0,13.74,13.74A13.75,13.75,0,0,0,233.57,75.72Z"/><circle class="cls-2" cx="79.48" cy="205.37" r="14.84"/><path class="cls-2" d="M79.48,221.32a15.95,15.95,0,1,1,16-15.95A16,16,0,0,1,79.48,221.32Zm0-29.69a13.74,13.74,0,1,0,13.74,13.74A13.76,13.76,0,0,0,79.48,191.63Z"/><circle class="cls-2" cx="225.09" cy="205.37" r="14.84"/><path class="cls-2" d="M225.08,221.32A15.95,15.95,0,1,1,241,205.37,16,16,0,0,1,225.08,221.32Zm0-29.69a13.74,13.74,0,1,0,13.75,13.74A13.76,13.76,0,0,0,225.08,191.63Z"/><circle class="cls-2" cx="152.99" cy="243.54" r="14.84"/><path class="cls-2" d="M153,259.48a15.95,15.95,0,1,1,15.95-15.94A16,16,0,0,1,153,259.48Zm0-29.68a13.74,13.74,0,1,0,13.74,13.74A13.75,13.75,0,0,0,153,229.8Z"/><rect class="cls-2" x="152.28" y="56.24" width="1.41" height="188.01"/><rect class="cls-2" x="151.18" y="55.14" width="3.62" height="190.21"/><rect class="cls-2" x="32.89" y="130.04" width="166" height="1.41" transform="translate(-52.48 177.4) rotate(-63.94)"/><rect class="cls-2" x="31.78" y="128.93" width="168.2" height="3.62" transform="translate(-52.47 177.42) rotate(-63.94)"/><rect class="cls-2" x="188.19" y="47.75" width="1.41" height="166" transform="translate(-38.25 96.41) rotate(-26.09)"/><rect class="cls-2" x="187.09" y="46.64" width="3.62" height="168.2" transform="translate(-38.25 96.41) rotate(-26.09)"/><path class="cls-2" d="M717.18,312.79a55.87,55.87,0,0,1-18.89,3.38c-9.31,0-17-2.36-23-8.12-5.29-5.1-8.56-13.25-8.54-22.81,0-18.32,12.63-31.73,33.21-31.73,7.1,0,12.72,1.56,15.36,2.82l-2,6.47a31.29,31.29,0,0,0-13.57-2.63c-14.9,0-24.67,9.28-24.67,24.66,0,15.56,9.34,24.78,23.71,24.78,5.19,0,8.71-.73,10.54-1.65v-18.3H697v-6.35h20.23Z"/><path class="cls-2" d="M729.22,255a83.84,83.84,0,0,1,15.25-1.32c8.43,0,14,1.6,17.81,5.06a15.38,15.38,0,0,1,4.81,11.67c0,8.07-5.15,13.44-11.58,15.65v.23c4.69,1.64,7.52,6.07,9,12.43,2,8.59,3.48,14.46,4.72,16.86H761c-1-1.78-2.36-7-4-14.7-1.82-8.41-5.14-11.68-12.33-11.92h-7.51v26.62h-7.92Zm7.92,28h8.11c8.5,0,13.87-4.62,13.87-11.66,0-8-5.75-11.44-14.12-11.46a34.52,34.52,0,0,0-7.86.7Z"/><path class="cls-2" d="M788.66,296.25l-6.34,19.3h-8.23L795,254.13h9.54l21,61.42H817l-6.58-19.3ZM808.83,290l-6.08-17.67c-1.34-4-2.25-7.68-3.17-11.21h-.21c-.88,3.59-1.84,7.34-3,11.1L790.27,290Z"/><path class="cls-2" d="M834.45,254.88a87,87,0,0,1,15.27-1.23c7.79,0,13.55,1.8,17.22,5.11a16.72,16.72,0,0,1,5.4,12.85c0,5.57-1.66,10-4.78,13.15-4.23,4.49-11,6.73-18.77,6.73a25.61,25.61,0,0,1-6.41-.58v24.64h-7.93Zm7.93,29.58a24.4,24.4,0,0,0,6.58.69c9.62,0,15.43-4.73,15.43-13.12,0-8.13-5.81-12.1-14.51-12.1a38.48,38.48,0,0,0-7.5.62Z"/><path class="cls-2" d="M890.9,254.13v25.72h29.69V254.13h8v61.42h-8V286.74H890.9v28.81h-8V254.13Z"/><path class="cls-2" d="M993,324.54c-8.28-2.12-16.39-4.64-23.51-7.09a12.82,12.82,0,0,0-3.73-.9c-14.6-.54-27-11.28-27-31.08s12-32.34,28.55-32.34,27.56,12.9,27.56,31.05c0,15.79-7.3,25.86-17.5,29.48V314c6.07,1.53,12.76,3,18,3.94Zm-6.53-40c0-12.29-6.39-25-19.4-25-13.38,0-19.93,12.43-19.93,25.68,0,13.06,7.14,24.84,19.54,24.84C979.33,310.1,986.47,298.56,986.47,284.57Z"/><path class="cls-2" d="M1005.1,254.13h8v54.73h26.26v6.69H1005.1Z"/><path class="cls-2" d="M276.45,220.73V78.37h22.23l50.13,71.95c11.44,16.7,20.53,31.66,27.93,46.36l.51-.22c-1.83-19-2.2-36.37-2.2-58.43V78.37h19V220.73H373.56l-49.75-72.16c-10.78-15.95-21.3-32.19-29.12-47.67l-.69.23c1.21,18,1.49,35.19,1.49,58.73v60.87Z"/><path class="cls-2" d="M449.56,78.37V220.73H429.24V78.37Z"/><path class="cls-2" d="M484.74,78.37H569V93.68h-64v47.4h59.11v15.23H505.06v64.42H484.74Z"/><path class="cls-2" d="M727,148.13c0,48.84-32.72,74.92-72.62,74.92-41.51,0-70.35-29.23-70.35-72.25,0-45.11,30.7-74.75,72.48-74.75C699.28,76.05,727,105.83,727,148.13Zm-121.59,2.24c0,30.47,18.19,57.73,50.07,57.73,32.11,0,50.14-26.82,50.14-59.17,0-28.34-16.25-57.93-49.89-57.93S605.44,119.24,605.44,150.37Z"/><path class="cls-2" d="M753.17,80.32A235.15,235.15,0,0,1,792,77.26c21.46,0,35.6,3.71,45.36,11.72,7.73,6.23,12.27,15.93,12.27,27.06,0,18.7-13.12,31.14-29.5,36.27v.52c11.94,3.81,19.15,14.07,23,28.83,5.14,19.89,8.85,33.51,12,39.07h-21c-2.46-4.12-6-16.26-10.28-34.08-4.64-19.5-13.11-27.06-31.41-27.61H773.37v61.69h-20.2Zm20.2,64.8H794c21.64,0,35.34-10.71,35.34-27,0-18.49-14.66-26.52-36-26.55-9.81,0-16.58.81-20,1.62Z"/><path class="cls-2" d="M1014.81,158.22c-1.21-19.78-2.63-43.81-2.49-61.41h-.64c-5.39,16.53-11.88,34.47-19.69,54l-27.64,69.06H949.08l-25.49-67.79c-7.46-20.11-13.54-38.38-17.93-55.24h-.54c-.55,17.75-1.56,41.45-3.07,62.81l-4.17,61.11h-19.2l10.9-142.36H915.4l26.65,68.9c6.45,17.43,11.7,33.11,15.76,48h.61c4.11-14.42,9.58-30.11,16.56-48l27.92-68.92h25.85l9.7,142.36h-19.87Z"/></svg>